HIERARCHY
ROOT Hips
{
 OFFSET 0.000000 0.000000 0.000000
 CHANNELS 6 Xposition Yposition Zposition Yrotation Xrotation Zrotation
 JOINT Chest
 {
  OFFSET 0.000000 9.585900 0.002600
  CHANNELS 3 Yrotation Xrotation Zrotation
  JOINT Chest2
  {
   OFFSET 0.000000 9.601200 -0.005300
   CHANNELS 3 Yrotation Xrotation Zrotation
   JOINT Chest3
   {
    OFFSET 0.000000 9.561800 0.000000
    CHANNELS 3 Yrotation Xrotation Zrotation
    JOINT Chest4
    {
     OFFSET 0.000000 9.552100 0.000000
     CHANNELS 3 Yrotation Xrotation Zrotation
     JOINT Neck
     {
      OFFSET 0.000000 14.453000 0.000000
      CHANNELS 3 Yrotation Xrotation Zrotation
      JOINT Head
      {
       OFFSET 0.000000 8.936500 -0.011300
       CHANNELS 3 Yrotation Xrotation Zrotation
       End Site
       {
        OFFSET 0.000000 17.073600 -0.006000
       }
      }
     }
     JOINT RightCollar
     {
      OFFSET -2.921100 9.558500 0.000000
      CHANNELS 3 Yrotation Xrotation Zrotation
      JOINT RightShoulder
      {
       OFFSET -13.519700 0.000000 0.000000
       CHANNELS 3 Yrotation Xrotation Zrotation
       JOINT RightElbow
       {
        OFFSET 0.000000 -29.696600 0.000000
        CHANNELS 3 Yrotation Xrotation Zrotation
        JOINT RightWrist
        {
         OFFSET 0.000000 -24.004700 0.000000
         CHANNELS 3 Yrotation Xrotation Zrotation
         End Site
         {
          OFFSET 0.000000 -17.728500 0.000000
         }
        }
       }
      }
     }
     JOINT LeftCollar
     {
      OFFSET 2.921100 9.558500 0.000000
      CHANNELS 3 Yrotation Xrotation Zrotation
      JOINT LeftShoulder
      {
       OFFSET 13.519700 0.000000 0.000000
       CHANNELS 3 Yrotation Xrotation Zrotation
       JOINT LeftElbow
       {
        OFFSET 0.000000 -29.696600 0.000000
        CHANNELS 3 Yrotation Xrotation Zrotation
        JOINT LeftWrist
        {
         OFFSET 0.000000 -24.004700 0.000000
         CHANNELS 3 Yrotation Xrotation Zrotation
         End Site
         {
          OFFSET 0.000000 -17.728500 0.000000
         }
        }
       }
      }
     }
    }
   }
  }
 }
 JOINT RightHip
 {
  OFFSET -7.771700 -0.012900 -0.001300
  CHANNELS 3 Yrotation Xrotation Zrotation
  JOINT RightKnee
  {
   OFFSET 0.000000 -40.869800 0.001200
   CHANNELS 3 Yrotation Xrotation Zrotation
   JOINT RightAnkle
   {
    OFFSET 0.000000 -39.717900 0.002100
    CHANNELS 3 Yrotation Xrotation Zrotation
    JOINT RightToe
    {
     OFFSET 0.000000 -4.965400 11.033500
     CHANNELS 3 Yrotation Xrotation Zrotation
     End Site
     {
      OFFSET 0.000000 -1.423100 5.872300
     }
    }
   }
  }
 }
 JOINT LeftHip
 {
  OFFSET 7.771700 -0.012900 -0.001300
  CHANNELS 3 Yrotation Xrotation Zrotation
  JOINT LeftKnee
  {
   OFFSET 0.000000 -40.869800 0.001200
   CHANNELS 3 Yrotation Xrotation Zrotation
   JOINT LeftAnkle
   {
    OFFSET 0.000000 -39.717900 0.002100
    CHANNELS 3 Yrotation Xrotation Zrotation
    JOINT LeftToe
    {
     OFFSET 0.000000 -4.965400 11.033500
     CHANNELS 3 Yrotation Xrotation Zrotation
     End Site
     {
      OFFSET 0.000000 -1.423100 5.872300
     }
    }
   }
  }
 }
}
MOTION
Frames: 13
Frame Time: 0.008333
-19.047630 57.719785 72.325994 -178.104528 -41.718019 -1.532357 -0.868164 28.979887 4.434542 -0.291344 5.471703 0.651335 -0.430900 8.581169 1.015863 -0.835392 23.362141 2.718457 1.147303 8.199565 -3.408863 3.927080 -20.389872 -7.268140 4.779605 0.224507 -2.554721 13.747445 -21.890518 -17.541296 53.739107 -75.617109 -39.483411 23.053071 -0.787101 -23.522305 -9.404798 -2.169806 -5.307182 1.124375 -20.348045 -5.510738 -82.967508 -63.954155 65.036894 -16.685237 -4.443967 12.265644 7.164493 -29.871329 -6.012466 -8.218185 64.320632 -9.925070 4.811957 13.863452 9.889534 -0.405818 -6.675222 0.665597 -6.801682 -34.968601 -5.651284 24.871299 55.781154 24.137996 -8.242042 38.280290 2.011399 0.276388 -16.910859 -5.342449
-19.048604 57.725399 72.325961 -178.090881 -41.701285 -1.525637 -0.886096 28.955785 4.413622 -0.293181 5.468318 0.651599 -0.431205 8.575556 1.014228 -0.830348 23.355411 2.717968 1.146046 8.217298 -3.404688 3.925949 -20.347806 -7.275790 4.770440 0.193751 -2.555878 13.759685 -21.886223 -17.530387 53.284013 -75.619970 -38.991601 23.024416 -0.759291 -23.569954 -9.432216 -2.222922 -5.297565 1.119542 -20.310009 -5.506312 -82.775199 -63.853330 64.834501 -16.635609 -4.490838 12.348098 7.165438 -29.878450 -6.022860 -8.230612 64.318291 -9.946386 4.804735 13.854024 9.884906 -0.400719 -6.671178 0.676417 -6.791032 -34.978588 -5.665245 24.868880 55.762823 24.127110 -8.251371 38.304824 2.023399 0.272345 -16.924097 -5.340106
-19.049465 57.730607 72.325950 -178.086228 -41.684884 -1.509282 -0.905955 28.924848 4.384632 -0.290391 5.474278 0.653573 -0.434288 8.565504 1.011638 -0.834901 23.341426 2.707569 1.150868 8.244557 -3.401885 3.929781 -20.316399 -7.277447 4.768339 0.158293 -2.552726 13.781073 -21.928294 -17.532957 52.605940 -75.592060 -38.257945 22.997994 -0.748099 -23.629673 -9.441456 -2.247738 -5.287827 1.058072 -20.364824 -5.498257 -82.373218 -63.781094 64.489352 -16.639950 -4.506847 12.440491 7.173543 -29.885574 -6.041995 -8.230887 64.319655 -9.951568 4.801013 13.830698 9.870796 -0.405251 -6.656272 0.693564 -6.770616 -34.988810 -5.683661 24.880143 55.741903 24.127352 -8.267278 38.330267 2.038342 0.265023 -16.935808 -5.338311
-19.047608 57.736331 72.324620 -178.079269 -41.677015 -1.506879 -0.924013 28.908735 4.369365 -0.283483 5.479966 0.655836 -0.442662 8.546411 1.007740 -0.829174 23.351779 2.706951 1.146791 8.244174 -3.408960 3.938624 -20.278885 -7.281487 4.766404 0.142512 -2.552754 13.787894 -22.002952 -17.552091 51.955394 -75.563815 -37.539380 22.977014 -0.750937 -23.694751 -9.453657 -2.294232 -5.281992 1.040390 -20.376111 -5.503298 -82.153370 -63.746003 64.298920 -16.613604 -4.467949 12.574099 7.177181 -29.885065 -6.039685 -8.251547 64.319080 -9.977829 4.790963 13.817060 9.865436 -0.399256 -6.649424 0.703184 -6.743933 -34.986368 -5.686196 24.872438 55.724519 24.117174 -8.308081 38.351894 2.028980 0.287175 -16.943338 -5.329837
-19.042218 57.742953 72.321265 -178.072675 -41.680855 -1.522080 -0.928606 28.909024 4.377236 -0.287779 5.468922 0.652943 -0.446083 8.537117 1.007401 -0.845395 23.316783 2.698744 1.167774 8.299279 -3.412407 3.943673 -20.255632 -7.289776 4.779822 0.130798 -2.560432 13.781842 -22.014310 -17.542463 51.413276 -75.536674 -36.926876 22.957417 -0.763471 -23.759230 -9.436938 -2.263944 -5.290136 1.041482 -20.393791 -5.515398 -81.997984 -63.716329 64.146923 -16.581474 -4.453044 12.681929 7.171451 -29.869492 -6.003231 -8.302638 64.309987 -10.040035 4.775039 13.798451 9.864208 -0.382260 -6.635979 0.711093 -6.724859 -34.974767 -5.672113 24.843990 55.720096 24.098346 -8.322917 38.383243 2.013975 0.289185 -16.970150 -5.310169
-19.035019 57.745775 72.321028 -178.053197 -41.652619 -1.552764 -0.940024 28.878283 4.393454 -0.306465 5.445678 0.648095 -0.437699 8.537755 1.007402 -0.860425 23.293668 2.693054 1.184302 8.334594 -3.419918 3.952631 -20.235006 -7.290149 4.794524 0.105083 -2.574914 13.766530 -22.024426 -17.525973 50.898322 -75.497472 -36.333184 22.969620 -0.789278 -23.819948 -9.430215 -2.293797 -5.294487 1.077283 -20.357667 -5.539328 -81.797726 -63.687072 63.955461 -16.575644 -4.482521 12.750665 7.143953 -29.888421 -5.971220 -8.320060 64.305225 -10.067596 4.778433 13.763036 9.866571 -0.389457 -6.610112 0.713578 -6.685849 -35.001614 -5.649692 24.768464 55.733818 24.057130 -8.376782 38.416058 1.968682 0.322960 -16.998232 -5.283345
-19.031326 57.749081 72.319026 -178.042236 -41.630007 -1.554157 -0.963577 28.851154 4.381633 -0.308317 5.441765 0.643188 -0.441315 8.520296 1.005092 -0.872790 23.274830 2.688494 1.190952 8.355882 -3.424347 3.967536 -20.202165 -7.304575 4.815040 0.119639 -2.580522 13.742493 -22.080725 -17.529125 50.374717 -75.448861 -35.722969 22.979634 -0.821849 -23.883290 -9.424147 -2.333610 -5.298408 1.118174 -20.302283 -5.560273 -81.505271 -63.633910 63.690694 -16.567419 -4.566230 12.839399 7.136471 -29.900246 -5.971876 -8.315756 64.308311 -10.068628 4.768911 13.718034 9.855330 -0.394812 -6.578039 0.723750 -6.661932 -35.027179 -5.653059 24.773839 55.728294 24.061263 -8.392663 38.464757 1.981535 0.337204 -17.039278 -5.283287
-19.029354 57.749466 72.319177 -178.022238 -41.578973 -1.547795 -1.002777 28.804978 4.350028 -0.305296 5.432456 0.642415 -0.439289 8.512539 1.005603 -0.885071 23.252219 2.683960 1.190572 8.359218 -3.428482 3.985640 -20.173820 -7.321727 4.823930 0.060477 -2.586090 13.729329 -22.034540 -17.506315 49.958133 -75.404785 -35.246925 22.964051 -0.856975 -23.952688 -9.413953 -2.333931 -5.304419 1.133823 -20.275666 -5.565968 -81.357681 -63.605099 63.567272 -16.548178 -4.594120 12.924428 7.130702 -29.942058 -5.993135 -8.312994 64.309729 -10.070988 4.757362 13.690874 9.847923 -0.389601 -6.557942 0.728480 -6.654438 -35.082214 -5.666307 24.798433 55.705687 24.062778 -8.361776 38.537406 2.045485 0.306354 -17.093733 -5.291295
-19.023380 57.750564 72.317640 -177.999273 -41.527847 -1.564472 -1.028543 28.773013 4.344199 -0.303123 5.412992 0.643550 -0.437330 8.500926 1.004374 -0.899669 23.220097 2.677764 1.193797 8.367615 -3.433263 4.000463 -20.151129 -7.334950 4.839167 -0.002360 -2.585713 13.694424 -22.053921 -17.508079 49.440151 -75.350143 -34.636468 22.904827 -0.865453 -23.997273 -9.407513 -2.387448 -5.318229 1.174262 -20.211160 -5.579255 -81.207679 -63.565984 63.416469 -16.544051 -4.631222 12.953521 7.106133 -29.980022 -5.982241 -8.313399 64.305863 -10.081440 4.745595 13.645158 9.835858 -0.386917 -6.521763 0.738001 -6.665986 -35.136992 -5.653735 24.799098 55.705002 24.059829 -8.348356 38.568065 2.070331 0.291954 -17.119494 -5.294436
-19.015899 57.748938 72.318466 -177.967103 -41.443209 -1.592123 -1.052157 28.692624 4.352610 -0.306684 5.410742 0.640876 -0.450767 8.460121 0.995179 -0.901365 23.207937 2.672807 1.192187 8.349499 -3.446893 4.021703 -20.101747 -7.337361 4.860686 -0.047720 -2.582220 13.665108 -22.094186 -17.519254 48.873936 -75.284850 -33.980959 22.879372 -0.886005 -24.044828 -9.396205 -2.441418 -5.331951 1.228983 -20.197275 -5.606460 -81.021324 -63.519657 63.188432 -16.538884 -4.635043 12.981749 7.072817 -30.045117 -5.965953 -8.294832 64.298421 -10.075564 4.711934 13.565083 9.816122 -0.378339 -6.451539 0.751846 -6.687919 -35.230816 -5.618326 24.794772 55.717157 24.035500 -8.323880 38.592610 2.117651 0.286885 -17.140873 -5.303364
-19.009231 57.749655 72.316099 -177.977443 -41.369942 -1.583097 -1.051196 28.636666 4.347622 -0.307979 5.401227 0.638143 -0.451211 8.438415 0.991767 -0.905261 23.184753 2.667099 1.195831 8.357911 -3.451147 4.031274 -20.094416 -7.348387 4.873423 -0.117596 -2.579783 13.652646 -22.108966 -17.522212 47.986094 -75.108846 -32.970316 22.895307 -1.009769 -24.213887 -9.387454 -2.448153 -5.334220 1.239753 -20.214014 -5.614430 -80.637185 -63.431588 62.833586 -16.527394 -4.721210 13.105832 7.082551 -30.100391 -5.971363 -8.258054 64.302327 -10.038290 4.685478 13.460663 9.784943 -0.384526 -6.365855 0.773366 -6.626190 -35.318834 -5.600205 24.781729 55.742908 23.998213 -8.282314 38.654444 2.211749 0.260328 -17.206314 -5.308317
-19.004766 57.752081 72.311438 -177.977263 -41.299548 -1.562835 -1.069707 28.588573 4.319017 -0.306986 5.389028 0.637974 -0.450209 8.415455 0.988639 -0.906885 23.158674 2.662592 1.197752 8.369552 -3.455916 4.037676 -20.079729 -7.357324 4.884106 -0.196819 -2.578093 13.646406 -22.122272 -17.524140 47.208611 -74.925505 -32.093264 22.897418 -1.114073 -24.355273 -9.379941 -2.542633 -5.333308 1.247465 -20.156116 -5.620162 -80.256294 -63.348170 62.474375 -16.518107 -4.797350 13.203130 7.096513 -30.161275 -6.003683 -8.197134 64.327396 -9.970060 4.634025 13.384647 9.748878 -0.369564 -6.313441 0.788528 -6.584559 -35.392980 -5.617056 24.788573 55.746050 24.000061 -8.268716 38.675398 2.263237 0.254110 -17.229874 -5.321287
-18.998394 57.755255 72.305801 -177.977983 -41.221306 -1.546539 -1.083278 28.539070 4.300902 -0.302566 5.363415 0.637324 -0.451271 8.405662 0.985808 -0.907343 23.144630 2.660721 1.196918 8.359243 -3.467276 4.038626 -20.052735 -7.360660 4.898113 -0.306255 -2.582940 13.636044 -22.135693 -17.522359 46.474781 -74.727842 -31.265076 22.898580 -1.198932 -24.480607 -9.368263 -2.675568 -5.330520 1.248825 -20.044004 -5.623326 -79.964436 -63.279130 62.199253 -16.506956 -4.861292 13.285673 7.105717 -30.219246 -6.027840 -8.193944 64.332350 -9.958336 4.615984 13.291769 9.722567 -0.368457 -6.241489 0.799021 -6.568511 -35.472697 -5.625403 24.799511 55.744234 24.007413 -8.247006 38.696093 2.302344 0.235639 -17.251827 -5.332313
